HIERARCHY
ROOT Hips
{
 OFFSET 0.000000 0.000000 0.000000
 CHANNELS 6 Xposition Yposition Zposition Yrotation Xrotation Zrotation
 JOINT Chest
 {
  OFFSET 0.000000 9.588913 -0.003946
  CHANNELS 3 Yrotation Xrotation Zrotation
  JOINT Chest2
  {
   OFFSET 0.000000 9.541882 0.008053
   CHANNELS 3 Yrotation Xrotation Zrotation
   JOINT Chest3
   {
    OFFSET 0.000000 9.501360 0.000000
    CHANNELS 3 Yrotation Xrotation Zrotation
    JOINT Chest4
    {
     OFFSET 0.000000 9.491660 0.000000
     CHANNELS 3 Yrotation Xrotation Zrotation
     JOINT Neck
     {
      OFFSET 0.000000 14.331917 0.000000
      CHANNELS 3 Yrotation Xrotation Zrotation
      JOINT Head
      {
       OFFSET 0.000000 8.884799 0.017034
       CHANNELS 3 Yrotation Xrotation Zrotation
       End Site
       {
        OFFSET 0.000000 16.896195 0.008993
       }
      }
     }
     JOINT RightCollar
     {
      OFFSET -2.923010 9.499495 0.000000
      CHANNELS 3 Yrotation Xrotation Zrotation
      JOINT RightShoulder
      {
       OFFSET -13.795216 0.000000 0.000000
       CHANNELS 3 Yrotation Xrotation Zrotation
       JOINT RightElbow
       {
        OFFSET -30.272209 0.000000 0.000000
        CHANNELS 3 Yrotation Xrotation Zrotation
        JOINT RightWrist
        {
         OFFSET -24.478199 0.000000 0.000000
         CHANNELS 3 Yrotation Xrotation Zrotation
         End Site
         {
          OFFSET -18.090752 0.000000 0.000000
         }
        }
       }
      }
     }
     JOINT LeftCollar
     {
      OFFSET 2.923010 9.499495 0.000000
      CHANNELS 3 Yrotation Xrotation Zrotation
      JOINT LeftShoulder
      {
       OFFSET 13.795216 0.000000 0.000000
       CHANNELS 3 Yrotation Xrotation Zrotation
       JOINT LeftElbow
       {
        OFFSET 30.272209 0.000000 0.000000
        CHANNELS 3 Yrotation Xrotation Zrotation
        JOINT LeftWrist
        {
         OFFSET 24.478199 0.000000 0.000000
         CHANNELS 3 Yrotation Xrotation Zrotation
         End Site
         {
          OFFSET 18.090752 0.000000 0.000000
         }
        }
       }
      }
     }
    }
   }
  }
 }
 JOINT RightHip
 {
  OFFSET -7.826875 0.019532 0.001973
  CHANNELS 3 Yrotation Xrotation Zrotation
  JOINT RightKnee
  {
   OFFSET 0.000000 -40.546152 -0.001885
   CHANNELS 3 Yrotation Xrotation Zrotation
   JOINT RightAnkle
   {
    OFFSET 0.000000 -39.417092 -0.003189
    CHANNELS 3 Yrotation Xrotation Zrotation
    JOINT RightToe
    {
     OFFSET 0.000000 -7.579396 17.243563
     CHANNELS 3 Yrotation Xrotation Zrotation
     End Site
     {
      OFFSET 0.000000 -1.500329 6.694466
     }
    }
   }
  }
 }
 JOINT LeftHip
 {
  OFFSET 7.826875 0.019532 0.001973
  CHANNELS 3 Yrotation Xrotation Zrotation
  JOINT LeftKnee
  {
   OFFSET 0.000000 -40.546152 -0.001885
   CHANNELS 3 Yrotation Xrotation Zrotation
   JOINT LeftAnkle
   {
    OFFSET 0.000000 -39.417092 -0.003189
    CHANNELS 3 Yrotation Xrotation Zrotation
    JOINT LeftToe
    {
     OFFSET 0.000000 -7.579396 17.243563
     CHANNELS 3 Yrotation Xrotation Zrotation
     End Site
     {
      OFFSET 0.000000 -1.500329 6.694466
     }
    }
   }
  }
 }
}
MOTION
Frames: 7
Frame Time: 0.008333
0.000000 87.345680 0.000000 0.000000 -5.767889 0.000000 0.000000 11.653876 0.000000 0.000000 -5.885988 0.000000 0.000000 -0.000000 0.000000 0.000000 -0.000000 0.000000 0.000000 12.528808 0.000000 0.000000 0.711711 0.000000 0.000000 -0.000000 0.000000 0.000000 -0.000000 0.000000 2.309063 -0.000000 0.000000 -2.309063 -0.000000 -0.000000 0.000000 -0.000000 0.000000 0.000000 0.000000 0.000000 -2.309063 0.000000 0.000000 2.309063 -0.000000 0.000000 0.000000 8.520374 0.000000 0.000000 1.905768 0.000000 -0.000000 -4.658254 0.000000 0.000000 -0.000000 0.000000 0.000000 8.520374 0.000000 0.000000 1.905768 0.000000 -0.000000 -4.658254 0.000000 0.000000 -0.000000 0.000000
-3.855015 89.136205 -10.601947 175.759731 -8.413542 -0.109263 2.775049 2.232885 -0.157960 1.581891 1.264934 -0.044206 1.977332 1.581321 -0.049801 1.581891 1.264934 -0.044206 -2.289970 14.715113 -1.017233 -2.161268 -10.270530 -0.544498 7.216576 -2.136840 -2.529746 -10.175523 -18.851062 79.059789 45.737068 -26.836332 41.954578 7.300032 -14.777508 -1.649132 -8.512007 -4.777775 -0.056739 7.699985 -22.202648 -85.770428 -27.783436 -21.864727 -52.645287 -13.471015 -11.209284 10.981029 -8.258181 9.861028 0.672342 4.863651 4.843289 0.220968 6.380960 -5.890809 -2.461415 0.018541 -0.077265 -0.002803 11.503246 8.104124 1.300867 -4.855930 3.114171 -0.313229 -2.827742 -3.689422 0.476260 -0.004542 0.145241 0.019715
-3.846724 89.138146 -10.584477 175.745416 -8.432797 -0.108544 2.773707 2.224124 -0.168414 1.581223 1.262289 -0.050521 1.976475 1.578042 -0.057708 1.581223 1.262289 -0.050521 -2.260336 14.750466 -1.007646 -2.132271 -10.234354 -0.541135 7.432205 -2.369676 -2.598220 -10.073803 -19.848963 78.723576 45.647979 -27.177504 42.000722 7.582304 -15.024414 -1.859149 -8.753974 -5.018971 -0.016216 7.748526 -23.234539 -85.708076 -27.512958 -22.052468 -52.847765 -13.670217 -11.402284 11.153935 -8.268864 9.866317 0.668864 4.868764 4.847330 0.228505 6.412591 -5.881006 -2.464356 0.018941 -0.083925 -0.006339 11.524606 8.100525 1.306517 -4.856051 3.136065 -0.306356 -2.829563 -3.691643 0.463909 -0.003268 0.141851 0.018865
-3.837185 89.140187 -10.563825 175.730699 -8.450121 -0.106135 2.770926 2.215457 -0.180301 1.579735 1.258996 -0.057275 1.974591 1.573954 -0.066170 1.579735 1.258996 -0.057275 -2.232756 14.789407 -0.999373 -2.105184 -10.194368 -0.538699 7.653626 -2.602516 -2.670641 -9.937939 -20.850814 78.394586 45.549067 -27.499679 41.983166 7.863172 -15.264240 -2.079281 -8.993931 -5.251521 0.033888 7.775325 -24.269887 -85.657726 -27.258253 -22.249255 -52.974446 -13.869942 -11.596964 11.278628 -8.283500 9.867625 0.668503 4.874702 4.852533 0.233136 6.434690 -5.870772 -2.466427 0.017468 -0.089771 -0.010720 11.546154 8.095499 1.311337 -4.855345 3.152902 -0.299510 -2.833750 -3.689767 0.448503 -0.002245 0.138674 0.019747
-3.826592 89.142078 -10.540325 175.711144 -8.461723 -0.101972 2.768544 2.205458 -0.193902 1.578346 1.254217 -0.064981 1.972828 1.568014 -0.075828 1.578346 1.254217 -0.064981 -2.206150 14.830972 -0.992869 -2.078760 -10.151594 -0.537902 7.878006 -2.830597 -2.748958 -9.760321 -21.858880 78.066691 45.435392 -27.813696 41.908935 8.141755 -15.500115 -2.308681 -9.232426 -5.472445 0.094881 7.802781 -25.313731 -85.615117 -27.011358 -22.425112 -53.055458 -14.088687 -11.776198 11.381850 -8.295666 9.860840 0.668929 4.879315 4.858351 0.238718 6.456935 -5.859985 -2.470785 0.015395 -0.093972 -0.014064 11.567814 8.085887 1.315474 -4.853663 3.164708 -0.294721 -2.836808 -3.684502 0.431146 -0.001069 0.135923 0.021922
-3.815182 89.143698 -10.515168 175.687180 -8.469714 -0.096144 2.766603 2.195322 -0.209993 1.577148 1.248999 -0.074316 1.971299 1.561531 -0.087525 1.577148 1.248999 -0.074316 -2.178772 14.872634 -0.987454 -2.051295 -10.108703 -0.538417 8.101748 -3.047832 -2.829464 -9.541550 -22.887267 77.730893 45.290157 -28.125747 41.792876 8.416670 -15.729049 -2.539860 -9.472020 -5.678427 0.172070 7.854759 -26.371757 -85.583504 -26.765764 -22.563791 -53.115770 -14.327511 -11.928286 11.489243 -8.302533 9.850310 0.667515 4.881339 4.860917 0.246132 6.487326 -5.847482 -2.477280 0.013710 -0.096233 -0.015774 11.585437 8.075267 1.318071 -4.848714 3.170393 -0.291291 -2.836357 -3.676057 0.413837 -0.000128 0.133683 0.023566
-3.803354 89.145007 -10.489760 175.663188 -8.479029 -0.087879 2.764083 2.187266 -0.227936 1.575728 1.244973 -0.084987 1.969487 1.556544 -0.100886 1.575728 1.244973 -0.084987 -2.151182 14.911505 -0.984488 -2.023060 -10.068693 -0.541537 8.325774 -3.250265 -2.911592 -9.303991 -23.946015 77.382506 45.099445 -28.427685 41.662171 8.672102 -15.947122 -2.754437 -9.718457 -5.867655 0.263481 7.951408 -27.449804 -85.568495 -26.516288 -22.653424 -53.165199 -14.577731 -12.059712 11.617017 -8.306968 9.840463 0.663900 4.885491 4.863566 0.251387 6.520443 -5.836063 -2.483685 0.012318 -0.096929 -0.015845 11.597196 8.068171 1.317519 -4.836821 3.172440 -0.286504 -2.838299 -3.665835 0.396220 -0.000065 0.131550 0.024365
